<?xml version="1.0" encoding="UTF-8"?>
<svg version="1.1" xmlns="http://www.w3.org/2000/svg" viewBox="0 0 3333 1117" width="100%" height="100%">
<path d="M0 0 C6.70365532 0.56090602 12.49157164 2.91219416 18.7421875 5.296875 C46.27721619 15.43123754 72.34806955 22.85352524 101.75 24.5625 C102.4323106 24.60222553 103.1146212 24.64195107 103.81760788 24.6828804 C111.11065692 25.09735002 118.40597831 25.42052063 125.70556641 25.69824219 C135.26328312 26.06876576 144.79185523 26.75869232 154.32751465 27.4916687 C156.83514055 27.67981981 159.3432966 27.85085108 161.85253906 28.01586914 C165.90826341 28.28645387 169.95254632 28.62515893 174 29 C174.93062256 29.06985107 175.86124512 29.13970215 176.82006836 29.21166992 C184.13838911 30.14166252 189.23083255 34.37139305 194.97854614 38.67431641 C206.65393919 47.30425388 216.62786463 51.52832836 231.34277344 51.90966797 C235.65033006 52.05610273 239.90807425 52.57227224 244.1875 53.0625 C244.92427979 53.13082031 245.66105957 53.19914062 246.42016602 53.26953125 C250.00781556 53.62323719 252.91156544 54.0767113 256 56 C250.95133522 62.27495545 245.79281398 68.43078315 240.5 74.5 C236.7472581 78.80426652 233.03635803 83.12760961 229.4375 87.5625 C228.37789062 88.85414063 228.37789062 88.85414063 227.296875 90.171875 C226.06930577 91.68337181 224.84529386 93.19801493 223.64648438 94.73242188 C210.32758857 111.76402747 210.32758857 111.76402747 199.0569706 113.25746536 C196.82702069 113.42144965 194.60311211 113.52036144 192.3684082 113.59619141 C191.50585324 113.63214731 190.64329828 113.66810322 189.75460529 113.7051487 C177.37693687 114.18943026 164.98961313 114.40408314 152.60546875 114.6484375 C149.81882835 114.70539355 147.03220905 114.76334969 144.24559021 114.8213501 C138.31205162 114.94450128 132.37848118 115.06598484 126.44488525 115.18634033 C110.71436915 115.50574817 94.98412403 115.83814279 79.25390625 116.171875 C78.45644895 116.1887683 77.65899164 116.20566159 76.83736897 116.22306681 C44.03217339 116.91823284 11.22941461 117.69590116 -21.57256699 118.52857208 C-25.33682957 118.62403202 -29.10110648 118.71890833 -32.86538696 118.81365967 C-47.01682049 119.17056363 -61.16786154 119.53962416 -75.31848907 119.92718887 C-77.8742971 119.99658679 -80.43014733 120.06409486 -82.98602295 120.13095093 C-87.21489504 120.24208442 -91.443371 120.36393016 -95.671875 120.48828125 C-96.81941254 120.51761749 -97.96695007 120.54695374 -99.14926147 120.57717896 C-122.48926867 121.31123178 -143.24156507 130.17744528 -159.55078125 147.15234375 C-177.07550944 167.52798467 -180.22388972 191.32619622 -180.1875 217.3125 C-180.18656342 218.17414764 -180.18562683 219.03579529 -180.18466187 219.92355347 C-180.10460574 254.07281359 -176.48748509 287.09105381 -167 320 C-166.34 320 -165.68 320 -165 320 C-164.56300781 318.22109375 -164.56300781 318.22109375 -164.1171875 316.40625 C-157.26226518 289.07182095 -146.51457202 266.67859912 -127 246 C-126.32710937 245.26265625 -125.65421875 244.5253125 -124.9609375 243.765625 C-99.38104002 216.74865462 -62.13857377 204.82072016 -25.76671422 203.7838639 C-21.69960344 203.68338734 -17.63223842 203.60013628 -13.56469727 203.51928711 C-11.72822412 203.48004234 -9.89175779 203.44047744 -8.05529785 203.40061951 C-3.09354407 203.29391308 1.86829556 203.19188413 6.83016849 203.09088969 C12.06033583 202.98379644 17.29042285 202.87290239 22.52052307 202.7625885 C31.31904863 202.57761181 40.11763327 202.39568346 48.91625977 202.21557617 C59.01231467 202.00887372 69.10826081 201.7973997 79.20416111 201.58328813 C88.98573553 201.37595837 98.76737996 201.17212254 108.54905891 200.96978951 C112.6754602 200.88437706 116.8018345 200.79780333 120.92819023 200.71021843 C143.28871957 200.23686901 165.63352574 199.84797691 188 200 C187.09211582 198.80248472 186.18418935 197.60500149 185.27624512 196.40753174 C184.77064812 195.74067982 184.26505112 195.0738279 183.744133 194.38676834 C178.19056001 187.06763996 172.51006245 179.87243841 166.68701172 172.76635742 C162.39093666 167.51319702 158.23131577 162.16896287 154.12109375 156.76953125 C152.69251004 154.90421661 151.22500809 153.06814867 149.72265625 151.26171875 C148 149 148 149 148 147 C155.24478729 148.90330628 162.36636781 151.03284255 169.4609375 153.43359375 C170.41336334 153.75280289 171.36578918 154.07201202 172.34707642 154.40089417 C175.35736774 155.41019523 178.36627733 156.42353334 181.375 157.4375 C184.37675067 158.44737815 187.37881159 159.4563082 190.38150024 160.46339417 C192.23769493 161.08611837 194.09335486 161.71044015 195.94833374 162.33677673 C197.7171021 162.93082055 199.4893561 163.51457105 201.26467896 164.08872986 C203.08459779 164.69503444 204.89031528 165.3457964 206.67843628 166.04029846 C217.01934893 169.77267323 227.64252967 170.13185541 238.53208542 170.81279182 C242.14867757 171.03908189 245.76354776 171.28448579 249.37857056 171.53453064 C257.04294309 172.06106626 264.70885059 172.56261723 272.375 173.0625 C281.28495792 173.6461964 290.1940784 174.24021282 299.10203934 174.85366631 C302.65713306 175.09401865 306.21298224 175.31892264 309.76913452 175.54298401 C311.95079206 175.69079946 314.13240482 175.83927767 316.31396484 175.98852539 C317.29695557 176.04626129 318.27994629 176.10399719 319.29272461 176.16348267 C326.61215186 176.68789616 332.11011432 178.36168527 338.12109375 182.7421875 C338.82943359 183.25136719 339.53777344 183.76054687 340.26757812 184.28515625 C340.98365234 184.80980469 341.69972656 185.33445312 342.4375 185.875 C343.87212215 186.91623707 345.30831418 187.95531468 346.74609375 188.9921875 C347.37185303 189.44964355 347.9976123 189.90709961 348.64233398 190.37841797 C349.42036377 190.91354004 350.19839355 191.44866211 351 192 C351.83212509 192.61638588 351.83212509 192.61638588 352.68106079 193.245224 C358.12207696 197.02523107 362.87932601 197.98994274 369.40625 198.58203125 C370.3715564 198.68593674 371.33686279 198.78984222 372.3314209 198.89689636 C375.38597665 199.22128122 378.44249967 199.5173047 381.5 199.8125 C383.58352872 200.02872441 385.66686569 200.24680507 387.75 200.46679688 C392.8313681 200.99935361 397.91469514 201.50651217 403 202 C402.30023994 205.09498926 401.57244864 206.83687642 399.4453125 209.21484375 C398.91856934 209.81184082 398.39182617 210.40883789 397.84912109 211.02392578 C397.28016113 211.65540527 396.71120117 212.28688477 396.125 212.9375 C394.93161267 214.28716034 393.73891546 215.63743118 392.546875 216.98828125 C391.6487207 218.00075928 391.6487207 218.00075928 390.73242188 219.03369141 C388.23922439 221.86348461 385.80299634 224.73925938 383.375 227.625 C382.93269043 228.14916504 382.49038086 228.67333008 382.03466797 229.21337891 C380.68899916 230.80826381 379.34447047 232.40410486 378 234 C377.03923769 235.13947066 376.07829764 236.27879147 375.1171875 237.41796875 C374.64152344 237.98177246 374.16585937 238.54557617 373.67578125 239.12646484 C372.28499164 240.77112119 370.88884977 242.41111182 369.4921875 244.05078125 C367.99602586 245.82131736 366.51623634 247.60617349 365.0703125 249.41796875 C359.94090343 255.71745039 354.09938353 259.68316758 346 261 C343.5367546 261.12947677 341.0706883 261.20855782 338.60450745 261.25645447 C337.86542556 261.27205081 337.12634367 261.28764716 336.36486536 261.30371612 C333.87945845 261.35508456 331.39397643 261.40003456 328.90844727 261.44506836 C327.10964866 261.48098412 325.31085819 261.51730977 323.51207542 261.55401039 C319.59405898 261.63308999 315.67600074 261.70932358 311.75788689 261.78341866 C305.38053878 261.9040636 299.00332341 262.03094149 292.62611389 262.15867615 C284.54186374 262.32017664 276.45758508 262.4801039 268.37326783 262.63821012 C252.23025848 262.95403774 236.08750574 263.28164115 219.94482422 263.61376953 C218.67860269 263.63980908 217.41238116 263.66584863 216.10778928 263.69267726 C210.93893092 263.79899067 205.77007365 263.90535643 200.60121834 264.01181781 C187.42799902 264.2831338 174.2547487 264.55292869 161.08149457 264.82254863 C157.08637947 264.90432781 153.09126529 264.98615153 149.09615135 265.06798744 C134.87519102 265.35926851 120.65421979 265.65000899 106.43323606 265.94014526 C95.00217776 266.17337946 83.57113607 266.4074139 72.14010721 266.6420874 C65.82402088 266.77172627 59.50792825 266.90103438 53.19181633 267.02942085 C50.79632922 267.07815838 48.40084238 267.12690939 46.00535583 267.17567444 C44.26198182 267.21114678 44.26198182 267.21114678 42.48338813 267.24733573 C33.67972947 267.42726414 24.87631244 267.61734577 16.07293588 267.81053704 C10.16364236 267.93833279 4.25440076 268.04873278 -1.65554315 268.1415866 C-5.22691603 268.1994241 -8.79804818 268.26755239 -12.36919868 268.33767498 C-13.97900617 268.36681403 -15.58890533 268.39138209 -17.1988622 268.41056931 C-43.06250419 268.72308535 -64.32039686 275.35402509 -82.9375 293.93359375 C-95.67154113 307.60563344 -101.12188596 325.07501415 -101.3125 343.4375 C-101.34150391 344.33404297 -101.37050781 345.23058594 -101.40039062 346.15429688 C-101.52568916 359.86966748 -96.14593271 373.09398034 -91.73608398 385.92041016 C-90.92514628 388.28603768 -90.12938186 390.65645208 -89.33398438 393.02734375 C-88.81600743 394.5445795 -88.29716056 396.06151861 -87.77734375 397.578125 C-87.54289047 398.2811676 -87.30843719 398.98421021 -87.06687927 399.70855713 C-85.44659095 404.49495212 -85.44659095 404.49495212 -82 408 C-78.58500409 408.66707548 -78.58500409 408.66707548 -75 408 C-71.71870402 405.03711926 -68.81340199 401.72607144 -65.85375977 398.44628906 C-39.51443346 369.34561685 -5.28133085 351.83335811 34 349 C42.93998416 348.57360219 51.89172718 348.48328879 60.8400023 348.35981286 C64.43775521 348.30822318 68.03533696 348.24649139 71.63294983 348.18603516 C77.84768286 348.08291088 84.06248629 347.98591277 90.2773819 347.89312553 C99.26822219 347.75880375 108.25887043 347.61397322 117.2495037 347.46651054 C131.84804109 347.2272636 146.44668005 346.99498759 161.04541016 346.76782227 C161.91671644 346.75426251 162.78802272 346.74070274 163.68573222 346.72673208 C164.55816896 346.71315546 165.43060571 346.69957884 166.32947993 346.6855908 C168.09520263 346.65811219 169.86092531 346.63063172 171.62664795 346.60314941 C172.93969817 346.58271314 172.93969817 346.58271314 174.27927466 346.56186401 C184.02588827 346.41004098 193.77247032 346.25623501 203.51904297 346.10180664 C204.39291335 346.08796251 205.26678373 346.07411839 206.16713503 346.05985474 C220.73021783 345.82899538 235.29323975 345.5944453 249.85623145 345.3579126 C258.82828831 345.21241995 267.80039032 345.07065839 276.77258208 344.93373228 C282.90987058 344.83991486 289.04710479 344.74299642 295.18430588 344.64362603 C298.72517814 344.58642708 302.26605799 344.53078383 305.80701637 344.47916603 C309.64268947 344.42323432 313.47822845 344.36026045 317.31378174 344.2966156 C318.43545124 344.28143794 319.55712075 344.26626028 320.71278024 344.25062269 C321.73985329 344.23244806 322.76692635 344.21427343 323.82512283 344.19554806 C325.15266205 344.17496064 325.15266205 344.17496064 326.50702024 344.15395731 C329.08115167 343.99498837 331.48592744 343.5634139 334 343 C326.58916664 333.32251262 319.08837681 323.7194102 311.54003906 314.14892578 C308.3516864 310.10575565 305.17096723 306.05682474 302 302 C301.33226562 301.14664062 300.66453125 300.29328125 299.9765625 299.4140625 C296 294.24266432 296 294.24266432 296 292 C303.49676102 293.96125088 310.85002148 296.19933076 318.1875 298.6875 C319.21125732 299.03127686 320.23501465 299.37505371 321.28979492 299.72924805 C325.61695188 301.18241008 329.94166272 302.64279139 334.26660156 304.10253906 C337.44772341 305.17505348 340.63007966 306.2438459 343.8125 307.3125 C345.2504895 307.80012817 345.2504895 307.80012817 346.7175293 308.29760742 C347.64218994 308.60802979 348.56685059 308.91845215 349.51953125 309.23828125 C350.31464111 309.50680908 351.10975098 309.77533691 351.92895508 310.05200195 C352.9423999 310.36484131 353.95584473 310.67768066 355 311 C355.79380664 311.24776467 356.58761328 311.49552935 357.40547466 311.75080204 C363.98787804 313.69294838 370.11957119 314.52307466 376.9621582 314.75756836 C379.10827715 314.8535594 381.25437934 314.94992576 383.40046692 315.0466156 C385.0846318 315.11632977 385.0846318 315.11632977 386.80282021 315.18745232 C392.85752746 315.45123042 398.90777711 315.79754764 404.95898438 316.13085938 C412.61014963 316.54980088 420.25960471 316.9452386 427.91674805 317.23803711 C478.08340543 319.2048018 478.08340543 319.2048018 499.18507481 336.17786503 C509.09990065 344.14513631 518.49042833 345.2878089 530.875 345.75 C532.85866594 345.89166716 534.8417711 346.04141683 536.82421875 346.19921875 C541.54835262 346.55843208 546.26609885 346.8118636 551 347 C546.44410256 356.4887486 537.90331775 364.48815885 531.05078125 372.4453125 C528.58096043 375.31617509 526.13465419 378.2058347 523.69726562 381.10424805 C503.65745226 404.92095854 503.65745226 404.92095854 489.83214378 406.32073784 C486.07567003 406.49889005 482.32295432 406.58509675 478.56323242 406.64038086 C477.06262397 406.67273438 475.56203992 406.706235 474.06147957 406.74074745 C469.84120752 406.83376603 465.62077284 406.90818988 461.40008569 406.97952008 C457.66019347 407.0449841 453.92053927 407.12094793 450.18084091 407.19657534 C435.80729147 407.48626447 421.43300458 407.7287156 407.05850875 407.96597517 C404.95504254 408.0007431 402.85157916 408.03567828 400.74811649 408.07066059 C351.88148261 408.88311895 303.01380119 409.62537678 254.14588027 410.35561308 C242.09341736 410.53572526 230.04096708 410.71666655 217.98852539 410.89819336 C217.06930163 410.91203749 216.15007788 410.92588161 215.20299885 410.94014526 C199.74253957 411.17304487 184.28210033 411.40725847 168.82167023 411.6420874 C160.23832706 411.77238412 151.65497323 411.90188782 143.07158852 412.02942085 C126.31040587 412.27862539 109.54936464 412.53330451 92.78861898 412.81053704 C85.31442764 412.93366201 77.84020769 413.04451288 70.36563116 413.1415866 C66.16924499 413.19851214 61.97309319 413.26641377 57.77692831 413.33767498 C55.92561216 413.36683278 54.07421584 413.39139506 52.22276938 413.41056931 C27.54557164 413.671286 4.80470373 419.42341575 -13.31640625 437.19921875 C-19.48720308 443.63948269 -23.56733167 450.74528669 -27.5 458.6875 C-27.86319336 459.4005127 -28.22638672 460.11352539 -28.60058594 460.84814453 C-30.83202444 465.56883276 -31.52082368 468.78855679 -30 474 C-26.03381712 476.64412192 -22.61840925 476.27608116 -18.01521301 476.2515564 C-17.08472175 476.25452654 -16.15423048 476.25749667 -15.19554251 476.26055682 C-12.06364947 476.26822226 -8.93194258 476.26169213 -5.80004883 476.25537109 C-3.55958427 476.25811998 -1.31912069 476.26179926 0.92134094 476.26634216 C5.75531008 476.27446845 10.58923292 476.27661892 15.42320824 476.27439499 C23.077206 476.27156479 30.73111121 476.28590554 38.38508606 476.30337524 C49.12805953 476.32659316 59.87102312 476.34569669 70.61401367 476.35839844 C71.2959616 476.35920881 71.97790952 476.36001918 72.68052254 476.3608541 C82.33254745 476.37204696 91.98456661 476.37734991 101.63659713 476.38024123 C102.31460358 476.38044522 102.99261002 476.38064921 103.69116211 476.38085938 C104.36833647 476.38105931 105.04551083 476.38125925 105.74320563 476.38146524 C117.07518909 476.38521105 128.40706918 476.40461792 139.7390154 476.43595374 C147.33568265 476.4561024 154.93208025 476.45856898 162.52876318 476.44767356 C167.27684872 476.44505202 172.02477995 476.4591419 176.77282524 476.47775459 C178.96079188 476.48304301 181.14878755 476.48163779 183.3367424 476.47271919 C204.9391803 476.39182979 224.18838249 479.17354244 240.21484375 495.05859375 C248.65270499 503.79302057 254.96131226 514.35813648 261.63476562 524.44458008 C266.41095201 531.65708716 271.28882895 538.78863587 276.25 545.875 C282.52765817 554.84700072 288.66684359 563.89851208 294.70117188 573.03564453 C296.70843675 576.07144401 298.72933393 579.09811165 300.75 582.125 C301.83333333 583.75 302.91666667 585.375 304 587 C306.07802269 584.92197731 305.33343675 580.50169899 305.43310547 577.6315918 C305.48461761 576.31429329 305.48461761 576.31429329 305.53717041 574.97038269 C305.61170033 573.05467389 305.68415429 571.13888349 305.75481796 569.22302818 C305.8678139 566.18236252 305.98798054 563.14206156 306.11038208 560.10176086 C306.4577938 551.45391502 306.79671541 542.80577945 307.11962891 534.15698242 C307.31750364 528.8709677 307.52774883 523.58556128 307.74557877 518.30033302 C307.82593538 516.29247751 307.9016909 514.28443198 307.9725914 512.27622032 C308.67431862 492.47234625 310.99300789 476.26383435 326 462 C336.67957525 452.84357729 350.03807099 448.97933484 364 450 C381.40323977 452.38011686 392.02068997 461.91364111 403.0546875 474.76953125 C405.48723658 477.5586588 407.99180377 480.27915879 410.5 483 C414.12115098 486.93261507 417.68959475 490.90214646 421.19140625 494.94140625 C423.4301125 497.4895665 425.71410212 499.99410593 428 502.5 C430.84524228 505.61907011 433.6719958 508.74755391 436.4375 511.9375 C439.3988351 515.3468858 442.44152486 518.6779431 445.5 522 C449.14414329 525.95862186 452.73913717 529.9517676 456.265625 534.015625 C459.79500714 538.05374691 463.40634226 542.01914681 467 546 C469.24796977 548.49687992 471.49508007 550.99453151 473.7421875 553.4921875 C475.26708244 555.18592894 476.79315402 556.87861169 478.3203125 558.5703125 C481.69912708 562.31564256 485.06895965 566.06518207 488.375 569.875 C491.35916686 573.30332192 494.42188484 576.65620801 497.5 580 C501.14411716 583.95864649 504.73913655 587.95176688 508.265625 592.015625 C512.58938795 596.96263307 517.02009833 601.81670554 521.43359375 606.68359375 C522.21863281 607.55113281 523.00367188 608.41867187 523.8125 609.3125 C524.52019531 610.09238281 525.22789062 610.87226562 525.95703125 611.67578125 C528 614 528 614 530.0078125 616.65234375 C531.97318742 618.96840322 533.33501962 620.00975844 536.0625 621.25 C536.73410156 621.56453125 537.40570312 621.8790625 538.09765625 622.203125 C543.35748066 624.406419 548.62222182 625.08386782 554.13720703 623.31420898 C559.89335726 620.75422645 564.75255274 617.56566572 569.75 613.75 C570.55783936 613.14446289 571.36567871 612.53892578 572.19799805 611.91503906 C574.80705926 609.95418095 577.40495338 607.9793619 580 606 C580.88961426 605.32195313 581.77922852 604.64390625 582.69580078 603.9453125 C584.50413379 602.56604789 586.31199598 601.18616576 588.11938477 599.80566406 C591.61453553 597.13780354 595.11526696 594.47732536 598.6171875 591.81835938 C600.8072866 590.14706244 602.9822183 588.45771803 605.15625 586.765625 C606.37409464 585.8425543 607.59277541 584.92058515 608.8125 584 C609.82957031 583.21625 610.84664062 582.4325 611.89453125 581.625 C616.00481954 579.47420763 618.40545656 579.57315828 623 580 C625.0625 581.5625 625.0625 581.5625 626 584 C625.74246835 589.80404 624.35530132 592.39715014 620.28759766 596.47290039 C619.79793518 596.97147049 619.30827271 597.47004059 618.80377197 597.98371887 C617.18843529 599.6202797 615.55236821 601.23411395 613.9140625 602.84765625 C612.77504056 603.98818246 611.63698404 605.12967354 610.49984741 606.27207947 C608.11337404 608.66288109 605.7166747 611.04278111 603.31201172 613.4152832 C600.25280928 616.43490953 597.21854602 619.47819371 594.19150734 622.53002262 C591.84307859 624.89274794 589.48250047 627.24303307 587.11817551 629.58984184 C585.9961042 630.70611972 584.87749498 631.82589019 583.76265335 632.9493885 C572.5945368 644.17522616 560.58119135 652.24972057 544.26293945 652.46826172 C542.95715942 652.45303467 542.95715942 652.45303467 541.625 652.4375 C540.7074292 652.42992676 539.7898584 652.42235352 538.84448242 652.41455078 C531.65720523 652.24050624 525.51379659 651.18185455 519 648 C517.78763672 647.41605469 517.78763672 647.41605469 516.55078125 646.8203125 C509.1224647 642.77720301 502.98797019 637.01396644 496.67675781 631.45898438 C494.30733431 629.39729613 491.87737286 627.41500628 489.4375 625.4375 C485.41641909 622.17221697 481.44654838 618.85442156 477.5 615.5 C473.53096457 612.12716411 469.53982979 608.78823355 465.5 605.5 C460.8954642 601.75212202 456.35980809 597.93016556 451.8359375 594.0859375 C448.4194046 591.18755177 444.97495162 588.328449 441.5 585.5 C436.8954642 581.75212202 432.35980809 577.93016556 427.8359375 574.0859375 C424.4194046 571.18755177 420.97495162 568.328449 417.5 565.5 C413.46015762 562.2117562 409.46938711 558.8724342 405.5 555.5 C394.1916417 545.6634916 394.1916417 545.6634916 382 537 C381.67 537.33 381.34 537.66 381 538 C381.01437936 539.57049211 381.10528672 541.14031858 381.22531128 542.70628357 C381.30181978 543.72960565 381.37832829 544.75292772 381.45715523 545.80725956 C381.54847662 546.94521693 381.63979801 548.0831743 381.73388672 549.25561523 C381.82674391 550.45542998 381.9196011 551.65524473 382.01527214 552.8914175 C383.23574442 568.39578967 384.63503171 583.88517954 386.02979517 599.3746407 C386.41843629 603.69626657 386.80453341 608.01811974 387.19088745 612.33995056 C387.91882095 620.47894075 388.64867381 628.61775741 389.37939441 636.7564978 C390.69361613 651.3947001 392.00499792 666.03315681 393.3148793 680.6717481 C393.77387016 685.80025542 394.23389097 690.92866901 394.69475961 696.05700791 C394.97935575 699.22551787 395.2632479 702.39409064 395.54696655 705.56267929 C395.67888327 707.03415516 395.81110908 708.50560336 395.94366074 709.97702217 C396.12390203 711.97822568 396.3029671 713.97953503 396.48196411 715.98085022 C396.58260729 717.10171052 396.68325047 718.22257082 396.78694344 719.37739658 C397 722 397 722 397 724 C389.16579988 724.04699177 381.3316347 724.08219988 373.4973278 724.10362434 C369.85689074 724.11392321 366.21655223 724.12781683 362.57617188 724.15087891 C306.23207515 724.49795303 253.49951457 713.68870994 211.11328125 673.9375 C208.9744802 671.92829822 208.9744802 671.92829822 206.4375 669.98046875 C204.24926608 668.20252869 202.5007163 666.45866421 200.6875 664.3125 C198.88294401 662.19427655 197.08185763 660.08876769 195.1953125 658.04296875 C189.8124735 652.20225341 185.11756148 645.93458824 180.39453125 639.5625 C176.04259102 633.69309847 171.59609393 627.89618424 167.15454102 622.09448242 C163.69422183 617.5659544 160.26480307 613.01894963 156.890625 608.42578125 C156.22651611 607.52569336 155.56240723 606.62560547 154.87817383 605.69824219 C153.6236328 603.99437692 152.37560046 602.28569159 151.13549805 600.57128906 C147.03755202 595.01807864 142.74298464 589.24766155 136 587 C129.97065807 586.48903882 124.79062941 586.98432535 120 591 C116.82395562 595.95072025 115.11814165 600.36853519 113.87890625 606.0859375 C113.69787857 606.87610764 113.51685089 607.66627777 113.33033752 608.48039246 C112.73059871 611.10967543 112.14685819 613.74226007 111.5625 616.375 C111.13837386 618.24237152 110.71305017 620.10947139 110.28662109 621.97631836 C108.84271707 628.31418971 107.42061181 634.65687352 106 641 C104.00130267 649.91878703 101.99693368 658.83624849 99.9826355 667.75152588 C99.13688294 671.50969718 98.30162951 675.27009781 97.46704102 679.03076172 C96.93938356 681.37607081 96.41132589 683.7212899 95.8828125 686.06640625 C95.65082657 687.12522507 95.41884064 688.18404388 95.17982483 689.27494812 C92.56090181 700.79482076 89.1797307 710.1316594 80 718 C72.12255584 722.75701614 64.75198132 724.11255157 55.62451172 724.16113281 C54.91139328 724.16609772 54.19827484 724.17106262 53.46354675 724.17617798 C51.11891693 724.19070615 48.77435483 724.19758728 46.4296875 724.203125 C45.21924459 724.20736607 45.21924459 724.20736607 43.9843483 724.21169281 C39.71059089 724.22665057 35.43686691 724.23590052 31.16308594 724.24023438 C26.77894052 724.24570203 22.39510833 724.26970362 18.01106071 724.29820633 C14.61354725 724.3169624 11.21610713 724.32204524 7.8185463 724.32357025 C6.20403463 724.3265701 4.58952341 724.33450673 2.97506332 724.34775543 C-10.63632611 724.45144778 -23.61575305 723.89602041 -34 714 C-39.56200279 706.60602349 -43.71060679 698.16196776 -47.99200439 689.98254395 C-49.47107665 687.15696695 -50.96056251 684.33692059 -52.44934082 681.51644897 C-53.20888859 680.07728765 -53.96792296 678.63785525 -54.72644043 677.19815063 C-58.15423002 670.69455365 -61.63150321 664.21856487 -65.125 657.75 C-69.93195508 648.84147695 -74.72320696 639.92472534 -79.5 631 C-84.34331302 621.95247097 -89.19639633 612.91029274 -94.0625 603.875 C-94.62598145 602.82763672 -95.18946289 601.78027344 -95.77001953 600.70117188 C-98.49696797 595.63494852 -101.23003069 590.57221935 -103.9797821 585.51834106 C-105.29657473 583.0972182 -106.61032429 580.67445073 -107.92379761 578.25152588 C-108.85774303 576.53177665 -109.7961403 574.81444748 -110.73461914 573.09716797 C-111.2939917 572.06479004 -111.85336426 571.03241211 -112.4296875 569.96875 C-112.92710449 569.05544922 -113.42452148 568.14214844 -113.93701172 567.20117188 C-115 565 -115 565 -115 563 C-120.83537271 563.06915941 -126.67004814 563.15726276 -132.50488281 563.26245117 C-134.4872256 563.2955764 -136.46965989 563.32364644 -138.45214844 563.34643555 C-141.31224329 563.38021054 -144.17150892 563.43253688 -147.03125 563.48828125 C-147.90865845 563.49467117 -148.78606689 563.5010611 -149.69006348 563.50764465 C-155.6487847 563.64801412 -161.89087874 564.18898429 -166.52697754 568.38056946 C-172.93097777 575.77702155 -173.19180342 583.23148833 -172.88671875 592.66796875 C-171.9093657 603.2289479 -166.07495498 612.05428807 -160.76953125 620.99951172 C-158.14153985 625.45563952 -155.7051838 630.00974544 -153.25 634.5625 C-152.26245222 636.36368359 -151.27414319 638.16444997 -150.28515625 639.96484375 C-146.35678134 647.15166643 -142.52335854 654.38853176 -138.6875 661.625 C-137.23838825 664.35812966 -135.78918568 667.09121114 -134.33984375 669.82421875 C-133.98050751 670.50184265 -133.62117126 671.17946655 -133.25094604 671.87762451 C-129.75379348 678.4695181 -126.24005803 685.05248282 -122.71743774 691.63079834 C-121.78075921 693.3800568 -120.84483455 695.12971888 -119.90893555 696.87939453 C-119.33570557 697.94915527 -118.76247559 699.01891602 -118.171875 700.12109375 C-117.6348999 701.12430664 -117.0979248 702.12751953 -116.54467773 703.16113281 C-114.71391178 706.52578375 -112.80744508 709.8434115 -110.86254883 713.14331055 C-110 715 -110 715 -109.9375 718.375 C-111.19004508 721.46952313 -112.17122892 722.29289815 -115 724 C-117.4375 724.36328125 -117.4375 724.36328125 -120 724.3125 C-120.845625 724.30863281 -121.69125 724.30476562 -122.5625 724.30078125 C-125.24360086 723.96994028 -126.71515615 723.4319132 -129 722 C-130.36523438 720.01074219 -130.36523438 720.01074219 -131.59375 717.546875 C-132.05990723 716.62994873 -132.52606445 715.71302246 -133.00634766 714.76831055 C-133.49925293 713.77226807 -133.9921582 712.77622559 -134.5 711.75 C-135.57887416 709.62535911 -136.6596476 707.50168173 -137.7421875 705.37890625 C-138.28842773 704.3027002 -138.83466797 703.22649414 -139.39746094 702.11767578 C-141.7227253 697.59396677 -144.1667205 693.1399113 -146.625 688.6875 C-152.08147078 678.76223099 -157.39309458 668.76231007 -162.6875 658.75 C-163.29661224 657.59834854 -163.29661224 657.59834854 -163.91802979 656.4234314 C-165.07479815 654.23569667 -166.23098049 652.04765406 -167.38671875 649.859375 C-167.73718765 649.19583511 -168.08765656 648.53229523 -168.44874573 647.84864807 C-170.87726198 643.24547604 -170.87726198 643.24547604 -172 641 C-172.57854736 640.98541748 -173.15709473 640.97083496 -173.75317383 640.95581055 C-195.60665508 640.34049514 -195.60665508 640.34049514 -204 637 C-205.24910156 636.50886719 -205.24910156 636.50886719 -206.5234375 636.0078125 C-220.05968613 629.96856311 -229.66834131 618.24743996 -234.91015625 604.63671875 C-240.91531726 585.33641058 -237.03414247 564.27262995 -229.3046875 546.1796875 C-227.13089476 541.46884796 -227.13089476 541.46884796 -227.8894043 536.60009766 C-228.36289307 535.71370605 -228.83638184 534.82731445 -229.32421875 533.9140625 C-229.85168701 532.91318604 -230.37915527 531.91230957 -230.92260742 530.88110352 C-231.50502197 529.80658936 -232.08743652 528.7320752 -232.6875 527.625 C-233.28473877 526.50085693 -233.88197754 525.37671387 -234.49731445 524.21850586 C-238.64988905 516.42673196 -242.87831033 508.67504454 -247.13012695 500.93701172 C-251.80057435 492.4213322 -256.34026821 483.83840313 -260.875 475.25 C-272.06478293 454.06499695 -283.40464675 432.9662918 -295 412 C-300.99330758 413.68938871 -306.2744202 416.603691 -311.75 419.5 C-312.75828857 420.02883789 -313.76657715 420.55767578 -314.80541992 421.10253906 C-322.13542663 424.96487764 -329.39820381 428.94002524 -336.59082031 433.05273438 C-341.7911609 436 -341.7911609 436 -344 436 C-343.00451687 377.74016429 -343.00451687 377.74016429 -342 349 C-341.34 348.67 -340.68 348.34 -340 348 C-338.77171995 353.29751138 -337.54498606 358.59537775 -336.31958008 363.89355469 C-335.90397182 365.68954744 -335.48796766 367.48544863 -335.0715332 369.28125 C-333.08372141 377.85443586 -331.10212851 386.42921043 -329.20703125 395.0234375 C-328.97089111 396.09255371 -328.73475098 397.16166992 -328.49145508 398.26318359 C-328 401 -328 401 -328 405 C-325.43623236 403.73167312 -322.87397788 402.46043635 -320.3125 401.1875 C-319.59126953 400.83107422 -318.87003906 400.47464844 -318.12695312 400.10742188 C-315.04436362 398.573165 -312.04926524 397.02998465 -309.10546875 395.23828125 C-307 394 -307 394 -305 394 C-305.20409485 393.44813522 -305.4081897 392.89627045 -305.61846924 392.3276825 C-307.76048849 386.53556274 -309.90208921 380.74328835 -312.04345703 374.95092773 C-312.84055221 372.79496431 -313.6377508 370.6390391 -314.43505859 368.4831543 C-315.58719243 365.36777863 -316.73894285 362.25226143 -317.890625 359.13671875 C-318.24183411 358.18729904 -318.59304321 357.23787933 -318.95489502 356.25968933 C-319.63209089 354.42730352 -320.30801268 352.59444625 -320.98254395 350.76107788 C-321.69929523 348.81602473 -322.42067261 346.87267319 -323.14538574 344.93057251 C-323.51216431 343.94003876 -323.87894287 342.949505 -324.25683594 341.92895508 C-324.7580899 340.58309074 -324.7580899 340.58309074 -325.26947021 339.21003723 C-326 337 -326 337 -326 335 C-321.85590613 336.50950025 -319.99515744 339.42175829 -317.625 342.9375 C-316.74509568 344.20554307 -315.86348764 345.47240507 -314.98046875 346.73828125 C-314.50528809 347.42229004 -314.03010742 348.10629883 -313.54052734 348.81103516 C-310.73640292 352.79546933 -307.83358711 356.70717711 -304.9375 360.625 C-304.04514648 361.83615479 -304.04514648 361.83615479 -303.13476562 363.07177734 C-300.48102919 366.66836557 -297.81655647 370.25498632 -295.10546875 373.80859375 C-294.68080322 374.36659668 -294.2561377 374.92459961 -293.81860352 375.49951172 C-292.70911201 376.95235783 -291.59309978 378.40021792 -290.4765625 379.84765625 C-289 382 -289 382 -289 384 C-286.43623236 382.73167312 -283.87397788 381.46043635 -281.3125 380.1875 C-280.59126953 379.83107422 -279.87003906 379.47464844 -279.12695312 379.10742188 C-278.42119141 378.75615234 -277.71542969 378.40488281 -276.98828125 378.04296875 C-276.02208862 377.56380005 -276.02208862 377.56380005 -275.03637695 377.07495117 C-272.63337838 375.80646985 -270.31959874 374.41430356 -268 373 C-268.56920166 372.43603516 -269.13840332 371.87207031 -269.72485352 371.29101562 C-272.34011844 368.69673231 -274.95132619 366.09840077 -277.5625 363.5 C-278.45775391 362.613125 -279.35300781 361.72625 -280.27539062 360.8125 C-284.81691999 356.28760628 -289.20041801 351.71254559 -293.37133789 346.84472656 C-296.61758593 343.16781903 -300.19122324 339.80815832 -303.72070312 336.40625 C-305.18281122 334.97301047 -306.59617692 333.49037458 -308 332 C-308 331.34 -308 330.68 -308 330 C-302.73990336 331.45162357 -298.78405583 333.87177881 -294.3125 336.875 C-292.79234136 337.87732609 -291.27148258 338.87859097 -289.75 339.87890625 C-288.574375 340.65451904 -288.574375 340.65451904 -287.375 341.44580078 C-283.55051076 343.94854528 -279.68220198 346.38047581 -275.8125 348.8125 C-266.07609278 354.9443263 -256.36856104 361.12105644 -246.6640625 367.30322266 C-242.11028806 370.20358303 -237.55511114 373.10173957 -233 376 C-235.47502111 378.79247854 -238.17172725 380.32999637 -241.453125 382.07421875 C-242.54125488 382.65606934 -243.62938477 383.23791992 -244.75048828 383.83740234 C-245.90532715 384.44793457 -247.06016602 385.0584668 -248.25 385.6875 C-249.4310895 386.31672725 -250.61191588 386.94644862 -251.79248047 387.57666016 C-255.19260469 389.38896166 -258.59617616 391.19465983 -262 393 C-264.39632394 394.2781844 -266.79150012 395.55849247 -269.18652344 396.83911133 C-271.78901548 398.2298385 -274.39423432 399.61541823 -277 401 C-275.71102063 405.17519748 -274.13257706 408.88784018 -272.05078125 412.7265625 C-271.4578125 413.82613281 -270.86484375 414.92570312 -270.25390625 416.05859375 C-269.60680879 417.24741649 -268.95967229 418.43621799 -268.3125 419.625 C-267.63751581 420.873425 -266.96304597 422.12212821 -266.2890625 423.37109375 C-264.88952009 425.96364609 -263.48777993 428.55499153 -262.08447266 431.14550781 C-258.86889656 437.08588016 -255.68617738 443.04381965 -252.5 449 C-251.24886086 451.33602478 -249.9975583 453.67196204 -248.74609375 456.0078125 C-248.12718262 457.16313477 -247.50827148 458.31845703 -246.87060547 459.50878906 C-244.38854143 464.1411978 -241.90528618 468.77296761 -239.42211914 473.40478516 C-237.57177097 476.85769955 -235.72326791 480.31159673 -233.875 483.765625 C-231.47074201 488.25805323 -229.06055159 492.74719139 -226.64442444 497.23324585 C-225.14461805 500.01960899 -223.64817381 502.80776938 -222.15231323 505.59625244 C-221.42945177 506.941899 -220.70512117 508.28675746 -219.97927856 509.63079834 C-218.97327029 511.49404004 -217.97239526 513.35995145 -216.97265625 515.2265625 C-216.39781494 516.29471191 -215.82297363 517.36286133 -215.23071289 518.46337891 C-214 521 -214 521 -214 523 C-213.23558594 522.3709375 -212.47117187 521.741875 -211.68359375 521.09375 C-193.03363453 506.06402491 -174.62610652 500.6064388 -151 498 C-163.59136852 474.1000564 -163.59136852 474.1000564 -176.45239258 450.34472656 C-181.60976208 440.9331214 -186.62608731 431.44689897 -191.6394043 421.95800781 C-194.90389264 415.78537271 -198.18480203 409.62800541 -201.58984375 403.53125 C-223.03374946 365.08885891 -236.62918596 322.7056152 -242 279 C-242.08580322 278.34789551 -242.17160645 277.69579102 -242.26000977 277.02392578 C-244.43612764 260.05908851 -244.37504682 243.02552883 -244.37060547 225.953125 C-244.37044257 222.65081976 -244.38441775 219.34906724 -244.41162109 216.046875 C-244.7019625 180.24628519 -244.7019625 180.24628519 -240 163 C-239.7899231 162.22292191 -239.57984619 161.44584381 -239.36340332 160.6452179 C-234.1711547 141.83062968 -224.84191336 123.72482982 -212 109 C-211.22785156 108.1028125 -210.45570313 107.205625 -209.66015625 106.28125 C-207.48289049 103.80996032 -205.2595102 101.39607401 -203 99 C-202.37867188 98.32582031 -201.75734375 97.65164063 -201.1171875 96.95703125 C-173.08254396 67.57344042 -133.61687417 56.49948934 -94.18701172 55.51928711 C-92.71756664 55.48004566 -91.24813018 55.44048072 -89.77870178 55.40061951 C-85.81875758 55.29410372 -81.8587094 55.19207322 -77.89862585 55.09088969 C-73.74925202 54.98409242 -69.59999005 54.87311211 -65.45071411 54.7625885 C-57.60648562 54.55427237 -49.76216465 54.34968102 -41.91780293 54.14645058 C-32.98175114 53.91475363 -24.04581139 53.67886966 -15.1098783 53.44264591 C3.25996092 52.9571276 21.62993327 52.4768286 40 52 C38.39591828 49.91320203 36.79164279 47.82655353 35.18725586 45.73999023 C34.73540672 45.15212486 34.28355759 44.56425949 33.81801605 43.95858002 C30.75498787 39.97541199 27.67284301 36.00890321 24.5625 32.0625 C23.64058877 30.89195562 22.71871492 29.72138179 21.796875 28.55078125 C21.33732422 27.9676416 20.87777344 27.38450195 20.40429688 26.78369141 C18.98101709 24.97588854 17.56040208 23.1660235 16.140625 21.35546875 C15.19792491 20.15363937 14.25521668 18.95181637 13.3125 17.75 C12.85907227 17.17169434 12.40564453 16.59338867 11.93847656 15.99755859 C8.45525035 11.561947 4.92377909 7.16688694 1.36328125 2.79296875 C0 1 0 1 0 0 Z M137 50 C141.20417259 54.23166699 141.20417259 54.23166699 145.70703125 57.90234375 C146.7115332 58.64967773 146.7115332 58.64967773 147.73632812 59.41210938 C148.42146484 59.91548828 149.10660156 60.41886719 149.8125 60.9375 C151.17317708 61.94661458 152.53385417 62.95572917 153.89453125 63.96484375 C154.89734131 64.70516846 154.89734131 64.70516846 155.92041016 65.46044922 C159.29272128 67.95702048 162.64634122 70.47845626 166 73 C169.82421454 69.27366298 173.35931418 65.38347874 176.8125 61.3125 C177.31458984 60.73177734 177.81667969 60.15105469 178.33398438 59.55273438 C181.09263294 56.67739904 181.09263294 56.67739904 182 53 C159.725 51.515 159.725 51.515 137 50 Z M285 198 C288.08759276 201.24345682 291.43736497 203.99222896 295 206.6875 C295.56162842 207.11595215 296.12325684 207.5444043 296.7019043 207.98583984 C302.44263172 212.35735926 308.21624819 216.68563378 314 221 C317.98904116 217.17868818 321.42567949 213.1090053 324.8125 208.75 C325.31458984 208.11320313 325.81667969 207.47640625 326.33398438 206.8203125 C328.84923509 204.18436528 328.84923509 204.18436528 330 201 C325.03825297 200.56784413 320.07610139 200.14079208 315.11352539 199.71826172 C313.42883743 199.57412247 311.74426371 199.42864079 310.05981445 199.28173828 C307.62480737 199.06962211 305.18941674 198.86249614 302.75390625 198.65625 C301.64239952 198.55781799 301.64239952 198.55781799 300.50843811 198.45739746 C295.32304806 198.02487368 290.2035843 197.94600691 285 198 Z M433 343 C436.49210705 346.63411511 440.15098086 349.78888563 444.1875 352.8125 C445.33134581 353.68017728 446.47456704 354.54867849 447.6171875 355.41796875 C448.46555176 356.06258057 448.46555176 356.06258057 449.33105469 356.72021484 C453.27494191 359.7444771 457.13470828 362.87635567 461 366 C464.98904116 362.17868818 468.42567949 358.1090053 471.8125 353.75 C472.31458984 353.11320312 472.81667969 352.47640625 473.33398438 351.8203125 C475.84923509 349.18436528 475.84923509 349.18436528 477 346 C455.05077338 343.58933627 455.05077338 343.58933627 433 343 Z " fill="#9CA3AF" transform="translate(519,174)"/>
<path d="M0 0 C20.3593818 19.13537087 32.0755786 49.23911315 33.04037869 76.81230748 C33.07445584 79.73450386 33.07775199 82.65514483 33.06947327 85.57752991 C33.0707549 87.24902868 33.0707549 87.24902868 33.07206243 88.9542951 C33.07370365 92.67145095 33.06821814 96.38856123 33.06274414 100.10571289 C33.06246195 102.77695822 33.06257664 105.4482008 33.06318665 108.1194458 C33.06370969 113.86186758 33.06058585 119.60427795 33.05494881 125.34669685 C33.04680403 133.64915687 33.04421554 141.9516114 33.04296082 150.25407498 C33.04077497 163.72594569 33.03412757 177.19781032 33.0246582 190.66967773 C33.01547199 203.75235972 33.00839707 216.83504005 33.00415039 229.91772461 C33.00375631 231.12839154 33.00375631 231.12839154 33.00335426 232.3635164 C33.00204917 236.41276399 33.00078548 240.46201159 32.99954236 244.5112592 C32.9891843 278.07652193 32.97075384 311.64177336 32.94921875 345.20703125 C-4.67078125 345.20703125 -42.29078125 345.20703125 -81.05078125 345.20703125 C-81.09976563 328.743125 -81.14875 312.27921875 -81.19921875 295.31640625 C-81.23460204 284.88931765 -81.27047984 274.46223464 -81.30859375 264.03515625 C-81.32858879 258.55664112 -81.34848428 253.07812565 -81.36816406 247.59960938 C-81.3706355 246.91301931 -81.37310694 246.22642925 -81.37565327 245.51903343 C-81.41531235 234.45190912 -81.44808112 223.38477467 -81.47828107 212.31762096 C-81.50945626 200.94960704 -81.54823699 189.58164082 -81.59357131 178.21367288 C-81.6187789 171.8327354 -81.64057713 165.45182796 -81.65412521 159.07085419 C-81.66699764 153.05940112 -81.68910774 147.04805137 -81.71816444 141.03665543 C-81.72719979 138.83572892 -81.73292096 136.63478579 -81.73499489 134.43384171 C-81.48869186 107.73695845 -81.48869186 107.73695845 -94.04296875 84.94921875 C-105.71030441 74.82542166 -120.75627668 70.6326895 -135.98828125 71.33203125 C-154.92321071 73.21506291 -170.03188913 81.74579381 -184.05078125 94.20703125 C-184.86289063 94.88765625 -185.675 95.56828125 -186.51171875 96.26953125 C-195.77025843 103.9804646 -195.77025843 103.9804646 -199.80468559 114.86149597 C-199.83690719 116.60422585 -199.83684498 118.34775101 -199.81027222 120.09057617 C-199.81948232 121.05704638 -199.82869242 122.02351658 -199.83818161 123.01927376 C-199.8616881 126.24257667 -199.84268224 129.46418848 -199.82373047 132.6875 C-199.83190402 135.00393197 -199.84270801 137.32035594 -199.85594177 139.63676453 C-199.88436886 145.91518227 -199.87602833 152.1930753 -199.86107397 158.47151947 C-199.85169379 165.03656995 -199.87614487 171.60149241 -199.89700317 178.16650391 C-199.92844105 189.18216287 -199.93706769 200.19768052 -199.93066406 211.21337891 C-199.92412713 222.55685062 -199.93025788 233.90020024 -199.953125 245.24365234 C-199.95453452 245.95062158 -199.95594404 246.65759081 -199.95739627 247.38598335 C-199.96976771 253.5361202 -199.98309546 259.68625491 -199.99651718 265.83638954 C-200.05301664 292.29334139 -200.04673829 318.74989898 -200.05078125 345.20703125 C-238.00078125 345.20703125 -275.95078125 345.20703125 -315.05078125 345.20703125 C-315.05078125 223.76703125 -315.05078125 102.32703125 -315.05078125 -22.79296875 C-261.59078125 -23.28796875 -261.59078125 -23.28796875 -207.05078125 -23.79296875 C-203.83328125 -2.84828125 -203.83328125 -2.84828125 -200.55078125 18.51953125 C-199.87208984 22.92981689 -199.19339844 27.34010254 -198.49414062 31.8840332 C-197.66894531 37.26599121 -197.66894531 37.26599121 -197.2833252 39.78483582 C-197.01331705 41.54566405 -196.74242012 43.30635613 -196.4708252 45.06694031 C-196.05984445 47.73221859 -195.65167734 50.39791395 -195.24414062 53.0637207 C-195.12235191 53.84923718 -195.0005632 54.63475367 -194.87508392 55.44407368 C-194.42587807 58.39819536 -194.05078125 61.21389392 -194.05078125 64.20703125 C-191.41078125 64.20703125 -188.77078125 64.20703125 -186.05078125 64.20703125 C-186.0971875 63.5728125 -186.14359375 62.93859375 -186.19140625 62.28515625 C-187.09389454 38.94938764 -178.29088968 17.41524846 -162.92578125 0.08203125 C-121.10946712 -45.05850047 -43.33164814 -37.88424094 0 0 Z " fill="#9CA3AF" transform="translate(2416.05078125,564.79296875)"/>
<path d="M0 0 C37.95 0 75.9 0 115 0 C115.03738281 16.66886719 115.07476563 33.33773437 115.11328125 50.51171875 C115.14355666 61.07097186 115.17458012 71.63021399 115.20898438 82.18945312 C115.22703281 87.73771088 115.24489652 93.28596918 115.26245117 98.83422852 C115.26465886 99.52955163 115.26686655 100.22487475 115.26914114 100.94126827 C115.30445007 112.14672514 115.32934284 123.35218194 115.35034702 134.55767372 C115.37215828 146.06921956 115.40547909 157.58068463 115.44870156 169.09217101 C115.4725994 175.5530791 115.49135077 182.01390799 115.49761391 188.47485924 C115.50368022 194.56268665 115.52373625 200.65031151 115.55427551 206.73806381 C115.56303091 208.96598082 115.56678353 211.19392433 115.56500816 213.42185783 C115.55614979 229.67548845 115.56827958 245.51459852 126.453125 258.76953125 C136.75292594 268.62716902 152.12367747 272.99125214 166 273.375 C188.98086214 272.71550506 208.9112198 259.62278424 225 244 C225.69883301 243.41159647 226.39766602 242.82319294 227.11767578 242.216959 C233.5901689 235.8197331 233.90413738 229.60356336 234.04947567 220.977422 C234.05920829 217.77911943 234.02990046 214.58243691 234 211.38427734 C234.00761204 209.0773991 234.01873589 206.77053018 234.03309631 204.46368408 C234.0620554 198.22032394 234.04203151 191.9779771 234.0130806 185.734653 C233.99116614 179.20297719 234.01448193 172.67146496 234.03295898 166.13980103 C234.05920539 155.18310755 234.0550397 144.22671116 234.03076172 133.27001953 C234.00584094 121.9887117 233.99786246 110.70759854 234.01220703 99.42626953 C234.01308056 98.7228538 234.01395408 98.01943806 234.01485407 97.2947067 C234.02259977 91.1752175 234.03162199 85.0557303 234.04076958 78.93624306 C234.07844936 52.6239606 234.03234978 26.31250533 234 0 C271.62 0 309.24 0 348 0 C348 121.11 348 242.22 348 367 C323.16539645 367.60572204 298.41809514 368.14804346 273.58966064 368.06866455 C269.87944174 368.05803717 266.16921442 368.0537869 262.45898438 368.04882812 C255.30597133 368.0384138 248.15298889 368.02158717 241 368 C238.17397922 352.79394073 235.85186763 337.50614606 233.5012207 322.22119141 C232.92339733 318.46508231 232.34034768 314.70980381 231.75607777 310.95469284 C231.30312497 308.03828046 230.85358365 305.12134977 230.4050045 302.20426178 C230.191319 300.81824322 229.97642403 299.43241053 229.76026344 298.04677582 C229.46005462 296.1199536 229.16509498 294.19231575 228.87036133 292.26464844 C228.70176102 291.17230896 228.53316071 290.07996948 228.35945129 288.95452881 C228.03213531 286.26413785 227.93018461 283.70605642 228 281 C225.36 281 222.72 281 220 281 C219.96261719 281.99257813 219.92523437 282.98515625 219.88671875 284.0078125 C218.78846658 308.34737372 211.48912966 329.48157532 194 347 C193.24074219 347.77085937 192.48148438 348.54171875 191.69921875 349.3359375 C170.59179159 369.57972198 139.99419945 375.76985827 111.66796875 375.25 C90.67262048 374.53355747 71.29510369 369.22089843 53 359 C52.01386719 358.45601562 51.02773437 357.91203125 50.01171875 357.3515625 C26.74689612 343.54754328 11.29648975 318.89693937 4.33436024 293.19819921 C-0.62965001 273.47762784 -0.29069142 252.8063383 -0.22705078 232.61352539 C-0.22648503 230.05844121 -0.22680642 227.5033567 -0.22793579 224.94827271 C-0.22838703 219.49964497 -0.22282102 214.05107957 -0.21146011 208.60246468 C-0.19504608 200.72517575 -0.18998107 192.84790983 -0.18748413 184.97060566 C-0.18313163 172.18310859 -0.16988974 159.39563737 -0.15087891 146.6081543 C-0.13245622 134.20320765 -0.11835419 121.79826812 -0.10986328 109.39331055 C-0.10932729 108.6179412 -0.10879129 107.84257186 -0.10823905 107.04370648 C-0.104079 100.97774502 -0.10016558 94.91178341 -0.09632993 88.84582174 C-0.07754063 59.23052408 -0.03728581 29.61529131 0 0 Z " fill="#9CA3AF" transform="translate(1554,543)"/>
<path d="M0 0 C40.59 0 81.18 0 123 0 C126.37465189 7.87418775 126.37465189 7.87418775 127.55200195 11.79272461 C127.95699921 13.12941193 127.95699921 13.12941193 128.37017822 14.49310303 C128.65665222 15.45315247 128.94312622 16.4132019 129.23828125 17.40234375 C129.5512616 18.43868958 129.86424194 19.4750354 130.18670654 20.54278564 C130.87052602 22.80846562 131.5525289 25.07469447 132.23294067 27.34140015 C133.92116528 32.96501352 135.62035792 38.58531324 137.31858635 44.20591164 C137.92974664 46.22918441 138.54040818 48.25260726 139.15101624 50.27604675 C143.38261752 64.29325626 147.66692477 78.2942615 151.9528513 92.29493618 C159.1020631 115.64905911 166.24066426 139.00650526 173.31735229 162.38272095 C174.01768208 164.69516113 174.71894286 167.00731958 175.4211731 169.31918335 C176.37467006 172.45936285 177.32462006 175.60059144 178.2734375 178.7421875 C178.69354851 180.12249397 178.69354851 180.12249397 179.12214661 181.53068542 C179.37236069 182.36215591 179.62257477 183.1936264 179.88037109 184.05029297 C180.20719376 185.13018997 180.20719376 185.13018997 180.5406189 186.23190308 C181 188 181 188 181 190 C183.97 190 186.94 190 190 190 C190.40789764 187.82531883 190.40789764 187.82531883 190.82403564 185.60670471 C191.86813104 180.39918449 193.26086266 175.3677892 194.81542969 170.29272461 C195.23164754 168.91357046 195.23164754 168.91357046 195.65627384 167.5065546 C196.57373162 164.47046331 197.49779707 161.436426 198.421875 158.40234375 C199.0775455 156.23702567 199.7327837 154.07157666 200.38761902 151.90600586 C202.14085018 146.11198167 203.89967984 140.3196714 205.6596489 134.52769089 C207.47881715 128.53772926 209.2931417 122.54630136 211.10766602 116.55493164 C213.29945705 109.31856259 215.49154363 102.08228447 217.68580627 94.84666443 C222.13776609 80.16428309 226.57031322 65.47623982 230.98046875 50.78125 C231.50414716 49.03730778 232.02785869 47.2933755 232.55160522 45.54945374 C235.45275032 35.88866586 235.45275032 35.88866586 238.34777832 26.2260437 C239.43522176 22.59232524 240.52549438 18.95946833 241.61800575 15.32727051 C242.197484 13.39765044 242.77362148 11.4670281 243.34965515 9.53637695 C243.85708 7.8514917 243.85708 7.8514917 244.37475586 6.13256836 C244.66684433 5.15766953 244.9589328 4.18277069 245.25987244 3.17832947 C246 1 246 1 247 0 C248.59422036 -0.09597204 250.1927045 -0.12187924 251.78981018 -0.12025452 C252.82612579 -0.12162918 253.86244141 -0.12300385 254.93016052 -0.12442017 C256.64997887 -0.11902725 256.64997887 -0.11902725 258.40454102 -0.11352539 C259.60437622 -0.11367142 260.80421143 -0.11381744 262.04040527 -0.1139679 C265.33985191 -0.11338894 268.63923664 -0.10835978 271.9386723 -0.10139394 C275.38334297 -0.09515973 278.82801438 -0.09455655 282.27268982 -0.09336853 C288.7998273 -0.09025541 295.32694811 -0.08204229 301.85407823 -0.07201904 C309.28322016 -0.0608573 316.71236286 -0.0553473 324.14151108 -0.05032361 C339.42768372 -0.03985966 354.71383972 -0.0222606 370 0 C369.337643 3.49554595 368.48265787 6.53798486 367.07666016 9.81054688 C366.47692886 11.21644325 366.47692886 11.21644325 365.86508179 12.65074158 C365.42749542 13.66318436 364.98990906 14.67562714 364.5390625 15.71875 C364.08173737 16.78762955 363.62441223 17.85650909 363.15322876 18.95777893 C362.16498848 21.26613246 361.17458087 23.57355906 360.18225098 25.88015747 C358.60781094 29.53995611 357.0386787 33.20200185 355.47167969 36.86499023 C354.93994506 38.10783543 354.40820677 39.35067905 353.87646484 40.59352112 C353.61240845 41.21073092 353.34835205 41.82794071 353.07629395 42.46385384 C352.27024092 44.34731302 351.46357129 46.23050703 350.65673828 48.1136322 C345.81604539 59.41376714 341.02450766 70.73427208 336.25 82.0625 C335.47473998 83.90057415 334.69943066 85.7386275 333.92407227 87.57666016 C332.00062593 92.13691037 330.07803738 96.69752168 328.15570068 101.25823975 C324.62634307 109.63121431 321.09526129 118.00346097 317.5625 126.375 C317.17187378 127.30071808 316.78124756 128.22643616 316.37878418 129.1802063 C309.86306703 144.6181851 303.30808268 160.03924566 296.74102783 175.45544434 C290.61605693 189.83529404 284.51398862 204.22459516 278.4375 218.625 C278.04706512 219.55024475 277.65663025 220.4754895 277.25436401 221.42877197 C274.50193584 227.95210419 271.75081183 234.47598606 269 241 C258.49076293 265.92442724 247.9632829 290.84071856 237.35546875 315.72338867 C233.35954412 325.09766961 229.37281891 334.47549388 225.41796875 343.8671875 C191.08282074 425.34699675 191.08282074 425.34699675 166 454 C165.27296875 454.84820313 164.5459375 455.69640625 163.796875 456.5703125 C142.23894537 481.21871456 113.57151887 495.20322971 81 498 C74.66345358 498.28295343 68.33778778 498.19162404 62 498 C58.76890488 486.28229738 55.95632823 474.48934511 53.234375 462.64453125 C52.79178703 460.72496778 52.34909715 458.80542781 51.90631104 456.88591003 C50.98685021 452.89692611 50.06942039 448.90748163 49.15332031 444.91772461 C47.97896759 439.80453379 46.79818672 434.69285069 45.61577988 429.58151722 C44.70343678 425.63346508 43.79508464 421.68450285 42.88788605 417.73526573 C42.45387767 415.84868313 42.01847867 413.96241988 41.58165741 412.07648659 C40.97443306 409.45272369 40.37274426 406.82775085 39.77246094 404.20239258 C39.59173035 403.4268251 39.41099976 402.65125763 39.22479248 401.85218811 C38.45184958 398.44723476 38 395.51360906 38 392 C38.67877197 391.87471924 39.35754395 391.74943848 40.05688477 391.62036133 C71.73233466 385.70886179 100.26406194 375.68753091 124 353 C124.64710938 352.41605469 125.29421875 351.83210938 125.9609375 351.23046875 C130.73645384 346.77818605 133.90439428 341.72159943 137 336 C137.40605469 335.36449219 137.81210938 334.72898437 138.23046875 334.07421875 C140.47677679 328.01944935 135.99721528 320.83142564 133.609375 315.32421875 C133.15769958 314.26809891 132.70602417 313.21197906 132.24066162 312.12385559 C130.74996329 308.64237992 129.2499843 305.16498371 127.75 301.6875 C126.70055605 299.24114667 125.6516538 296.79456855 124.60351562 294.34765625 C122.45123056 289.32560117 120.29473661 284.3053751 118.13476562 279.28662109 C115.28673179 272.66900949 112.44624039 266.04818773 109.609375 259.42578125 C108.75374497 257.42854754 107.89811347 255.43131447 107.04248047 253.43408203 C106.41379059 251.96651459 106.41379059 251.96651459 105.7723999 250.46929932 C104.48712901 247.46996398 103.20096383 244.47101359 101.91455078 241.47216797 C95.46212088 226.42854317 89.03715189 211.37333359 82.625 196.3125 C82.14774475 195.19154938 81.6704895 194.07059875 81.17877197 192.91567993 C77.2987746 183.80191435 73.42023376 174.68752908 69.54174805 165.57312012 C66.15350955 157.61095825 62.76470025 149.64903968 59.375 141.6875 C58.89758362 140.56614655 58.42016724 139.44479309 57.92828369 138.28945923 C50.71870231 121.35811602 43.4811821 104.43891783 36.22457886 87.52767944 C31.03883029 75.44184726 25.86629433 63.35048906 20.71484375 51.25 C20.45169498 50.63190964 20.18854622 50.01381927 19.91742325 49.3769989 C17.09679651 42.75144582 14.27801354 36.12511049 11.4609375 29.49804688 C10.99184464 28.39525391 10.52275177 27.29246094 10.03944397 26.15625 C9.16694874 24.10508056 8.29502545 22.05366769 7.42381287 20.00195312 C7.03057327 19.07769531 6.63733368 18.1534375 6.23217773 17.20117188 C5.8605954 16.32710693 5.48901306 15.45304199 5.10617065 14.55249023 C3.69704077 11.30092117 2.21495244 8.08452092 0.71034241 4.87609863 C0 3 0 3 0 0 Z " fill="#9CA3AF" transform="translate(2886,542)"/>
<path d="M0 0 C122.43 0 244.86 0 371 0 C371 31.68 371 63.36 371 96 C300.71 96.33 230.42 96.66 158 97 C166.91 100.96 166.91 100.96 176 105 C184.77144893 109.67810609 192.51259015 114.49190369 200 121 C200.81984375 121.68707031 201.6396875 122.37414062 202.484375 123.08203125 C228.88611844 145.83508655 239.99323208 178.86091618 242.78196609 212.76505232 C243.10312316 217.53002817 243.1349011 222.27378101 243.12025452 227.0479126 C243.12153615 228.61300037 243.12153615 228.61300037 243.12284368 230.20970607 C243.12447684 233.66879347 243.11901291 237.12783121 243.11352539 240.58691406 C243.11324303 243.08126321 243.11340222 245.57561245 243.1139679 248.06996155 C243.11419483 253.42109045 243.11137808 258.77220421 243.10573006 264.12332916 C243.09756953 271.85995761 243.09499519 279.59658018 243.09374207 287.33321247 C243.09155867 299.88832339 243.08491797 312.44342778 243.07543945 324.99853516 C243.06624686 337.18766244 243.05918656 349.37678793 243.05493164 361.56591797 C243.05466364 362.32613026 243.05439565 363.08634256 243.05411953 363.86959159 C243.05203985 369.81580477 243.05008302 375.76201798 243.04816496 381.70823121 C243.03874776 410.80549347 243.01862556 439.90273936 243 469 C205.38 469 167.76 469 129 469 C127.87501951 457.75019513 127.87501951 457.75019513 127.86971474 453.38726139 C127.86609039 452.38978384 127.86246604 451.39230629 127.85873187 450.36460215 C127.85980012 449.30166152 127.86086837 448.2387209 127.86196899 447.14356995 C127.85914771 445.98870258 127.85632643 444.83383521 127.85341966 443.64397186 C127.84512206 439.79462341 127.84373956 435.94530391 127.84228516 432.09594727 C127.83817526 429.32730395 127.83253495 426.55866436 127.82688904 423.7900238 C127.81539875 417.8359499 127.80713576 411.88187877 127.80076981 405.92779732 C127.79039955 396.49977402 127.76982369 387.07178543 127.74765015 377.64378357 C127.74017146 374.41122162 127.73275752 371.17865952 127.72536278 367.94609737 C127.72351221 367.13833313 127.72166165 366.33056889 127.719755 365.49832695 C127.69885409 356.31602667 127.68001469 347.13372258 127.66210938 337.95141602 C127.66047119 337.11272033 127.65883301 336.27402465 127.65714519 335.40991395 C127.63089429 321.83721912 127.61222963 308.26452159 127.59551747 294.69181217 C127.57804165 280.72328891 127.54913844 266.75481838 127.5106281 252.78633732 C127.48734793 244.19013104 127.4732444 235.59401079 127.47130047 226.99777275 C127.46917641 221.09486513 127.45612593 215.19204274 127.43482114 209.28917349 C127.42290316 205.89433824 127.41722567 202.49981309 127.42153358 199.10493851 C127.66022222 170.70537401 127.66022222 170.70537401 119 144 C118.35417969 142.7315625 118.35417969 142.7315625 117.6953125 141.4375 C106.53832068 121.26666734 86.47937778 110.12669289 65.11083984 103.63842773 C54.18209082 100.51498863 43.04002915 98.99585318 31.75 97.875 C30.99050049 97.79934814 30.23100098 97.72369629 29.44848633 97.64575195 C19.6446866 96.76373886 9.84526463 96.46882213 0 96 C0 64.32 0 32.64 0 0 Z " fill="#9CA3AF" transform="translate(1156,441)"/>
<path d="M0 0 C37.95 0 75.9 0 115 0 C115 42.9 115 85.8 115 130 C141.07 130 167.14 130 194 130 C194 161.68 194 193.36 194 226 C167.93 226 141.86 226 115 226 C115.06192279 241.83220472 115.06192279 241.83220472 115.16015625 257.6640625 C115.20831895 264.13086117 115.25242807 270.59749292 115.27099609 277.06445312 C115.28625327 282.28423296 115.32085773 287.50357309 115.36830902 292.72315598 C115.38302997 294.70438162 115.39103562 296.68567007 115.39188385 298.66695023 C115.40831297 317.81757836 118.25689744 333.3389523 131.73046875 347.89453125 C135.74866027 351.6222511 140.20374617 354.38192653 145 357 C145.64453125 357.36222656 146.2890625 357.72445313 146.953125 358.09765625 C154.4307173 361.59261787 163.88493775 361.14992639 171.6484375 358.98046875 C175.97848688 357.34059879 180.08280284 355.48054379 184.18359375 353.33203125 C187 352 187 352 190 352 C190 387.64 190 423.28 190 460 C144.69020513 470.0688433 93.88207789 471.45883652 53 446 C49.4549254 443.53591353 46.2152537 440.87651367 43 438 C42.16082031 437.29101562 41.32164062 436.58203125 40.45703125 435.8515625 C18.97482198 417.32681321 7.5134839 390.62507984 2.75 363.1875 C2.58669189 362.26461182 2.42338379 361.34172363 2.25512695 360.39086914 C-0.57940742 342.77507615 -0.1398475 324.74179301 -0.09765625 306.95703125 C-0.09578602 304.60764089 -0.09436498 302.25825014 -0.09336853 299.90885925 C-0.08959097 293.79182821 -0.07980265 287.67482176 -0.06866455 281.55780029 C-0.0565256 274.18272662 -0.05202548 266.80764463 -0.04621124 259.43256378 C-0.03658729 248.28835887 -0.01739772 237.14420767 0 226 C-18.15 226 -36.3 226 -55 226 C-55 194.32 -55 162.64 -55 130 C-44.605 129.01 -44.605 129.01 -34 128 C-21.91417879 124.86663895 -12.57552428 119.94782094 -6 109 C-2.21821798 100.62030671 -0.85624074 92.99879568 -0.79467773 83.89526367 C-0.78464501 82.97282773 -0.77461229 82.05039179 -0.76427555 81.10000324 C-0.73296598 78.12268371 -0.70815051 75.14535083 -0.68359375 72.16796875 C-0.66518335 70.32637099 -0.6463463 68.48477744 -0.6270752 66.64318848 C-0.55871315 59.82467553 -0.49860557 53.00608184 -0.4375 46.1875 C-0.293125 30.945625 -0.14875 15.70375 0 0 Z " fill="#9CA3AF" transform="translate(2684,450)"/>
<path d="M0 0 C37.62 0 75.24 0 114 0 C114 121.44 114 242.88 114 368 C76.38 368 38.76 368 0 368 C0 246.56 0 125.12 0 0 Z " fill="#9CA3AF" transform="translate(1944,542)"/>
<path d="M0 0 C37.62 0 75.24 0 114 0 C114.02224642 36.33866748 114.04063096 72.67732829 114.05106533 109.01600068 C114.05231532 113.35319643 114.05360971 117.69039216 114.05493164 122.02758789 C114.05519395 122.89067059 114.05545626 123.75375328 114.05572652 124.64299 C114.06002104 138.42880939 114.06787235 152.21462441 114.0771528 166.00044125 C114.08666587 180.25589992 114.09209187 194.51135639 114.09408849 208.76681811 C114.09531108 216.72751904 114.09815026 224.68821097 114.10573006 232.64890862 C114.13133413 260.33358987 114.11657397 288.01559029 113.77072144 315.69851685 C113.75603125 316.87452728 113.75603125 316.87452728 113.7410443 318.07429551 C113.52946853 334.71671305 113.25668315 351.35822768 113 368 C75.71 368 38.42 368 0 368 C0 246.56 0 125.12 0 0 Z " fill="#9CA3AF" transform="translate(2491,542)"/>
<path d="M0 0 C1.05735352 0.00563965 2.11470703 0.0112793 3.20410156 0.01708984 C20.09617708 0.27948597 34.85010433 5.30798515 47.1875 17.3125 C58.42163118 30.12612239 62.10186758 43.62113541 61.1875 60.3125 C59.20174401 73.50917763 53.50824437 82.95927917 44.1875 92.3125 C43.63320312 92.89 43.07890625 93.4675 42.5078125 94.0625 C30.63241013 105.40616793 13.30041649 107.78378236 -2.40600586 107.66845703 C-9.82618671 107.47417805 -16.67158919 106.42900707 -23.8125 104.3125 C-25.12734375 103.92964844 -25.12734375 103.92964844 -26.46875 103.5390625 C-40.56453586 98.67690852 -51.09717113 87.77761072 -57.52490234 74.6640625 C-63.83428234 60.9699647 -62.92561963 46.67998251 -57.88671875 32.75390625 C-51.58234204 18.42577736 -38.78543397 8.80982081 -24.58984375 3.13671875 C-16.39479562 0.70471431 -8.52973727 -0.04764456 0 0 Z " fill="#9CA3AF" transform="translate(2548.8125,412.6875)"/>
<path d="M0 0 C11.3487421 8.53276125 19.5546727 19.84766825 22 34 C23.52844923 48.81367539 21.19938182 62.89956832 12 75 C1.16142681 87.63923072 -12.29789195 95.16748031 -29 97 C-48.72472929 98.1118369 -67.55361718 95.47539665 -83.4375 82.8125 C-94.54015992 71.98063666 -100.37865102 58.91237549 -101.0234375 43.4375 C-100.92126904 28.45279257 -95.0558633 16.10490461 -84.671875 5.40625 C-62.86175613 -14.23561144 -24.23939828 -16.79846672 0 0 Z " fill="#9CA3AF" transform="translate(2041,423)"/>
<path d="M0 0 C4.80398004 3.54313478 8.16983051 7.39268572 11.3515625 12.421875 C9.7015625 13.741875 8.0515625 15.061875 6.3515625 16.421875 C3.66029121 15.32543114 2.15391556 14.21873787 0.1015625 12.109375 C-7.09061759 5.08065355 -13.56908154 3.03588023 -23.48046875 3.14453125 C-30.59540408 3.76741708 -36.87613649 6.73326461 -42.11328125 11.57421875 C-48.69075218 19.49061506 -50.50447782 28.40620329 -49.6484375 38.421875 C-47.7768125 46.30299474 -43.44674044 53.37883362 -36.5234375 57.76953125 C-28.19465479 62.04109444 -18.72853893 63.18732112 -9.6484375 60.55078125 C0.32342398 55.9144737 3.21635149 49.75990253 7.3515625 39.421875 C-2.2184375 39.421875 -11.7884375 39.421875 -21.6484375 39.421875 C-21.6484375 37.111875 -21.6484375 34.801875 -21.6484375 32.421875 C-9.4384375 32.421875 2.7715625 32.421875 15.3515625 32.421875 C15.3515625 43.4207542 13.62014278 51.93314324 6.40234375 60.44921875 C-2.39009795 68.90671029 -12.28610155 70.91954135 -24.10546875 70.7421875 C-34.41677664 69.80996341 -42.86736666 64.81777673 -49.9765625 57.47265625 C-56.6353235 49.30478353 -59.66696564 38.85357454 -58.6484375 28.421875 C-56.93614473 16.91838082 -51.79224695 8.29633934 -42.83203125 0.890625 C-29.91250388 -7.79943276 -13.33402807 -7.94535006 0 0 Z " fill="#9CA3AF" transform="translate(2641.6484375,977.578125)"/>
<path d="M0 0 C9 0 9 0 11.00878906 1.35083008 C11.42354492 1.98400146 11.83830078 2.61717285 12.265625 3.26953125 C12.75603271 3.98351074 13.24644043 4.69749023 13.75170898 5.43310547 C14.49336304 6.61090576 14.49336304 6.61090576 15.25 7.8125 C15.79664307 8.62348145 16.34328613 9.43446289 16.90649414 10.27001953 C18.05530678 11.97869551 19.19127632 13.69606911 20.31494141 15.42138672 C22.95116899 19.45555591 25.70236573 23.407223 28.4375 27.375 C31.6859375 32.139375 31.6859375 32.139375 35 37 C39.62 43.6 44.24 50.2 49 57 C49.33 38.19 49.66 19.38 50 0 C52.64 0 55.28 0 58 0 C58 24.09 58 48.18 58 73 C50 73 50 73 47.19921875 70.28125 C46.3344959 69.03952753 45.49872218 67.77731706 44.6875 66.5 C43.9917688 65.4800293 43.9917688 65.4800293 43.28198242 64.43945312 C42.31035221 63.01030532 41.35026556 61.57324714 40.40136719 60.12890625 C39.09843209 58.14953446 37.76615 56.1960144 36.4140625 54.25 C34.63564865 51.68994323 32.86927081 49.12236772 31.11328125 46.546875 C27.27362588 40.92612076 23.38638188 35.33850109 19.5 29.75 C18.80495361 28.74904297 18.10990723 27.74808594 17.39379883 26.71679688 C16.73790771 25.77384766 16.0820166 24.83089844 15.40625 23.859375 C14.52936523 22.59818848 14.52936523 22.59818848 13.63476562 21.31152344 C12.12762249 19.18045546 10.56609553 17.08812738 9 15 C8.67 33.81 8.34 52.62 8 72 C5.36 72.33 2.72 72.66 0 73 C0 48.91 0 24.82 0 0 Z " fill="#9CA3AF" transform="translate(1963,974)"/>
<path d="M0 0 C9 0 9 0 10.96118164 1.37915039 C11.35684326 2.02875732 11.75250488 2.67836426 12.16015625 3.34765625 C12.63533691 4.08653076 13.11051758 4.82540527 13.60009766 5.58666992 C14.08269043 6.40369385 14.5652832 7.22071777 15.0625 8.0625 C16.17363485 9.81126147 17.28701886 11.55859537 18.40234375 13.3046875 C19.27221924 14.6963916 19.27221924 14.6963916 20.15966797 16.11621094 C23.32728373 21.07984551 26.73710997 25.87278939 30.125 30.6875 C36.46348211 39.76000323 42.72971729 48.87958879 49 58 C49.33 38.86 49.66 19.72 50 0 C52.31 0 54.62 0 57 0 C57 24.09 57 48.18 57 73 C54.36 73 51.72 73 49 73 C46.78396289 70.70046004 45.45833379 68.94068832 43.875 66.25 C42.93034181 64.76568017 41.98363163 63.28266482 41.03515625 61.80078125 C40.54289551 61.01396973 40.05063477 60.2271582 39.54345703 59.41650391 C36.93229857 55.3283599 34.11337114 51.39823132 31.3125 47.4375 C23.51620816 36.30945952 15.75923986 25.1539073 8 14 C7.67 33.14 7.34 52.28 7 72 C3.535 72.495 3.535 72.495 0 73 C0 48.91 0 24.82 0 0 Z " fill="#9CA3AF" transform="translate(2366,974)"/>
<path d="M0 0 C9 0 9 0 11.17651367 1.70214844 C11.66869385 2.4965332 12.16087402 3.29091797 12.66796875 4.109375 C13.24385742 4.99931152 13.81974609 5.88924805 14.41308594 6.80615234 C14.99864258 7.77762207 15.58419922 8.7490918 16.1875 9.75 C17.48663855 11.77969821 18.78745721 13.80832188 20.08984375 15.8359375 C20.73937012 16.8681543 21.38889648 17.90037109 22.05810547 18.96386719 C24.9815927 23.53471044 28.10820349 27.95265875 31.25 32.375 C37.24034663 40.86731256 43.11141547 49.43478614 49 58 C49.33 38.86 49.66 19.72 50 0 C52.31 0 54.62 0 57 0 C57 24.09 57 48.18 57 73 C49 73 49 73 46.79760742 71.14257812 C46.23920166 70.28083984 45.6807959 69.41910156 45.10546875 68.53125 C44.46593262 67.57581299 43.82639648 66.62037598 43.16748047 65.63598633 C42.51408691 64.60111084 41.86069336 63.56623535 41.1875 62.5 C40.49027832 61.44643311 39.79305664 60.39286621 39.07470703 59.30737305 C37.67277837 57.18767114 36.28131601 55.06100651 34.90087891 52.92724609 C32.46170441 49.17105521 29.92783916 45.49237037 27.375 41.8125 C24.714375 37.9453125 24.714375 37.9453125 22 34 C17.38 27.4 12.76 20.8 8 14 C7.67 33.14 7.34 52.28 7 72 C3.535 72.495 3.535 72.495 0 73 C0 48.91 0 24.82 0 0 Z " fill="#9CA3AF" transform="translate(1742,974)"/>
<path d="M0 0 C2.31 0 4.62 0 7 0 C7 10.23 7 20.46 7 31 C20.86 31 34.72 31 49 31 C49 20.77 49 10.54 49 0 C51.31 0 53.62 0 56 0 C56 24.09 56 48.18 56 73 C53.69 73 51.38 73 49 73 C49 61.78 49 50.56 49 39 C35.14 39 21.28 39 7 39 C7 50.22 7 61.44 7 73 C4.69 73 2.38 73 0 73 C0 48.91 0 24.82 0 0 Z " fill="#9CA3AF" transform="translate(2740,974)"/>
<path d="M0 0 C1.35886291 0.96502298 2.70118383 1.95556027 4 3 C3.64950425 6.24208567 3.43778819 7.61527704 0.9375 9.8125 C0.298125 10.204375 -0.34125 10.59625 -1 11 C-1.47050781 10.65066406 -1.94101563 10.30132813 -2.42578125 9.94140625 C-3.04839844 9.48636719 -3.67101563 9.03132812 -4.3125 8.5625 C-4.92738281 8.11003906 -5.54226562 7.65757812 -6.17578125 7.19140625 C-9.8153682 4.81437409 -13.13864477 4.80816506 -17.375 4.75 C-18.49648437 4.72421875 -19.61796875 4.6984375 -20.7734375 4.671875 C-25.36543247 5.13885754 -27.94629662 6.73555595 -30.875 10.25 C-32.7145887 14.74677238 -31.49076799 18.52769603 -30 23 C-27.90687449 24.07091401 -27.90687449 24.07091401 -25 25 C-23.48222529 25.57245749 -21.96682834 26.15123706 -20.453125 26.734375 C-19.19133423 27.21994873 -19.19133423 27.21994873 -17.90405273 27.71533203 C0.89030888 35.0422113 0.89030888 35.0422113 6.0625 41.625 C7.79493372 47.8617614 7.88557635 54.18699278 5.9375 60.375 C1.49845741 66.38918673 -3.49764575 69.99947683 -10.8125 71.625 C-23.35264976 73.10031174 -33.60200709 70.10836241 -44 63 C-42.79618552 60.50638429 -41.54571278 58.31856917 -40 56 C-39.14921875 56.43119141 -39.14921875 56.43119141 -38.28125 56.87109375 C-36.0387716 57.98081337 -33.78130665 59.03513074 -31.5 60.0625 C-30.7471875 60.40410156 -29.994375 60.74570313 -29.21875 61.09765625 C-23.0214359 63.61804279 -16.09487722 64.11070199 -9.609375 62.3515625 C-5.74371112 60.67644149 -4.19451613 59.30321633 -1.875 55.6875 C-0.79890359 51.15252228 -0.91107191 49.17785619 -3 45 C-8.04686868 40.88999835 -14.06493946 38.60910685 -20.125 36.4375 C-28.40691649 33.45794574 -35.83783843 30.32432313 -40 22 C-40.65654104 14.30447797 -40.88061888 8.19970506 -36 2 C-26.43892299 -7.30946972 -11.12111704 -5.63595592 0 0 Z " fill="#9CA3AF" transform="translate(2501,976)"/>
<path d="M0 0 C15.18 0 30.36 0 46 0 C46 2.31 46 4.62 46 7 C33.13 7 20.26 7 7 7 C7 14.92 7 22.84 7 31 C19.54 31 32.08 31 45 31 C45 33.64 45 36.28 45 39 C32.46 39 19.92 39 7 39 C7 50.22 7 61.44 7 73 C4.69 73 2.38 73 0 73 C0 48.91 0 24.82 0 0 Z " fill="#9CA3AF" transform="translate(1838,974)"/>
<path d="M0 0 C3.30460834 -0.99488872 5.71473973 -1.13412244 9 0 C12.71964438 4.28878331 15.22771506 9.19027863 17.875 14.1875 C18.6244537 15.54406301 19.37702988 16.89890594 20.1328125 18.25195312 C21.52218067 20.74793554 22.89193185 23.25266284 24.24169922 25.77026367 C25.76105103 28.56108638 27.34126215 31.29043035 29 34 C32.47462947 29.03038769 35.62684557 23.96634822 38.55078125 18.65234375 C39.16759766 17.55341797 39.78441406 16.45449219 40.41992188 15.32226562 C41.69389505 13.04383888 42.94356939 10.75167351 44.16992188 8.44726562 C48.78498147 0.36252468 48.78498147 0.36252468 52.48583984 -0.74169922 C54.78419688 -0.745748 56.77296861 -0.55027555 59 0 C54.6512868 8.13112167 50.06895656 16.1092326 45.39404297 24.05517578 C44.23594555 26.02389196 43.08068634 27.99425348 41.92578125 29.96484375 C36.29172503 39.56241246 36.29172503 39.56241246 34 43 C33.63000663 46.19990054 33.63000663 46.19990054 33.5859375 49.85546875 C33.56657135 50.51710526 33.5472052 51.17874176 33.5272522 51.86042786 C33.46757313 53.96932164 33.42111913 56.07827037 33.375 58.1875 C33.33680934 59.61916415 33.29775697 61.05080559 33.2578125 62.48242188 C33.16188227 65.98807312 33.07780803 69.49389445 33 73 C30.69 73 28.38 73 26 73 C26.05873291 72.2378418 26.11746582 71.47568359 26.17797852 70.69042969 C27.51621463 48.92092161 22.77988085 35.85236141 10.23779297 18.20654297 C7.86291336 14.80356797 5.62520488 11.34368465 3.44140625 7.81640625 C2.44862671 6.21647827 2.44862671 6.21647827 1.43579102 4.58422852 C0 2 0 2 0 0 Z " fill="#9CA3AF" transform="translate(2181,974)"/>
<path d="M0 0 C18.48 0 36.96 0 56 0 C56 2.31 56 4.62 56 7 C48.08 7 40.16 7 32 7 C32 28.78 32 50.56 32 73 C29.36 73 26.72 73 24 73 C24 51.22 24 29.44 24 7 C16.08 7 8.16 7 0 7 C0 4.69 0 2.38 0 0 Z " fill="#9CA3AF" transform="translate(2828,974)"/>
<path d="M0 0 C18.15 0 36.3 0 55 0 C55 2.31 55 4.62 55 7 C47.08 7 39.16 7 31 7 C31 28.78 31 50.56 31 73 C28.69 73 26.38 73 24 73 C24 51.22 24 29.44 24 7 C16.08 7 8.16 7 0 7 C0 4.69 0 2.38 0 0 Z " fill="#9CA3AF" transform="translate(2099,974)"/>
<path d="M0 0 C2.64 0 5.28 0 8 0 C8 24.09 8 48.18 8 73 C5.36 73 2.72 73 0 73 C0 48.91 0 24.82 0 0 Z " fill="#9CA3AF" transform="translate(2542,974)"/>
<path d="M0 0 C2.64 0 5.28 0 8 0 C8 24.09 8 48.18 8 73 C5.36 73 2.72 73 0 73 C0 48.91 0 24.82 0 0 Z " fill="#9CA3AF" transform="translate(2059,974)"/>
<path d="M0 0 C2.64 0 5.28 0 8 0 C8 24.09 8 48.18 8 73 C5.36 73 2.72 73 0 73 C0 48.91 0 24.82 0 0 Z " fill="#9CA3AF" transform="translate(1917,974)"/>
<path d="M0 0 C2.31 0 4.62 0 7 0 C7 24.09 7 48.18 7 73 C4.69 73 2.38 73 0 73 C0 48.91 0 24.82 0 0 Z " fill="#9CA3AF" transform="translate(2320,974)"/>
<path d="M0 0 C2.31 0 4.62 0 7 0 C7 24.09 7 48.18 7 73 C4.69 73 2.38 73 0 73 C0 48.91 0 24.82 0 0 Z " fill="#9CA3AF" transform="translate(1696,974)"/>
</svg>
